<?xml version="1.0" standalone="no"?>
<!DOCTYPE svg PUBLIC "-//W3C//DTD SVG 20010904//EN"
 "http://www.w3.org/TR/2001/REC-SVG-20010904/DTD/svg10.dtd">
<svg version="1.0" xmlns="http://www.w3.org/2000/svg"
 width="800.000000pt" height="800.000000pt" viewBox="0 0 800.000000 800.000000"
 preserveAspectRatio="xMidYMid meet">
<metadata>
Created by potrace 1.11, written by Peter Selinger 2001-2013
</metadata>
<g transform="translate(0.000000,800.000000) scale(0.100000,-0.100000)"
fill="#000000" stroke="none">
<path d="M3895 7160 c-142 -8 -293 -27 -420 -55 -38 -9 -95 -20 -125 -26 -30
-6 -64 -15 -75 -19 -11 -5 -54 -18 -95 -31 -41 -12 -79 -25 -85 -30 -5 -5 -17
-9 -28 -9 -16 0 -46 -11 -142 -50 -50 -21 -236 -114 -290 -145 -33 -19 -67
-38 -75 -42 -56 -26 -309 -213 -411 -303 -138 -122 -304 -298 -304 -323 0 -6
14 -19 32 -30 l32 -18 138 139 c134 136 256 242 358 312 27 19 55 40 61 45 6
6 27 19 47 30 20 11 37 23 37 27 0 5 6 8 14 8 8 0 21 6 28 13 28 26 363 197
387 197 6 0 19 4 29 10 27 15 85 38 112 45 14 3 34 10 45 15 59 25 108 40 128
40 13 0 27 4 33 9 8 8 111 32 254 60 104 21 235 32 425 38 207 6 402 -10 590
-49 55 -11 119 -24 143 -29 23 -5 51 -13 61 -19 11 -5 30 -10 43 -10 13 0 34
-6 48 -13 14 -8 40 -16 57 -20 17 -3 51 -15 75 -26 24 -11 54 -22 68 -26 82
-21 517 -249 528 -277 2 -4 8 -8 13 -8 9 0 34 -17 114 -77 247 -185 433 -374
617 -627 89 -122 228 -368 288 -511 5 -11 18 -41 29 -67 12 -26 21 -52 21 -58
0 -5 4 -18 10 -28 20 -36 72 -213 66 -227 -3 -8 -2 -15 3 -15 5 0 14 -21 20
-47 7 -27 17 -65 22 -85 5 -21 12 -68 16 -105 3 -38 9 -72 13 -78 29 -39 27
-795 -1 -795 -5 0 -9 -11 -9 -25 0 -14 4 -25 9 -25 5 0 12 -27 16 -60 4 -33
11 -60 16 -60 5 0 9 -11 9 -25 0 -16 6 -25 15 -25 9 0 15 9 15 25 0 14 4 25
10 25 5 0 10 10 9 23 -1 48 14 177 21 177 5 0 8 16 8 35 0 20 3 71 7 113 9
113 11 402 2 405 -4 1 -8 39 -8 85 0 45 -5 82 -10 82 -5 0 -9 22 -9 48 0 27
-6 71 -14 98 -8 27 -14 56 -14 64 0 8 -6 40 -12 70 -7 30 -13 66 -14 80 0 14
-4 27 -7 30 -4 3 -19 46 -33 95 -29 96 -67 202 -98 275 -43 100 -52 118 -96
205 -58 114 -64 126 -79 143 -7 7 -13 18 -13 23 0 16 -184 284 -216 314 -5 6
-28 33 -49 60 -50 65 -295 310 -360 360 -27 21 -54 44 -60 50 -28 30 -222 164
-335 232 -65 39 -311 163 -323 163 -4 0 -30 11 -59 24 -29 14 -69 29 -88 35
-19 5 -60 18 -90 29 -304 109 -706 161 -1095 142z"/>
<path d="M1595 5740 c-31 -4 -41 -10 -43 -26 -3 -19 4 -22 85 -32 48 -6 116
-14 151 -17 37 -3 70 -11 78 -20 9 -8 22 -15 30 -15 22 0 50 -31 59 -65 12
-42 12 -46 4 -82 -4 -18 -3 -31 1 -28 4 3 11 -2 14 -11 3 -8 5 -200 5 -427 -1
-226 3 -413 8 -414 4 -2 7 -49 5 -106 -3 -124 -4 -49 8 -767 7 -356 15 -602
21 -613 12 -22 11 -285 -2 -293 -9 -5 -6 -417 4 -444 3 -8 8 -139 12 -290 3
-151 10 -279 15 -284 6 -5 15 -4 25 4 13 11 15 8 15 -18 0 -18 6 -32 16 -36
23 -9 34 1 34 32 0 21 2 24 10 12 8 -12 10 -10 10 10 0 14 -9 31 -20 38 -22
13 -28 44 -8 39 25 -5 48 179 48 376 0 116 2 137 15 137 8 0 15 -7 15 -15 0
-9 9 -15 25 -15 18 0 28 -9 42 -37 12 -27 14 -38 5 -41 -31 -10 -3 -56 42 -68
21 -5 26 -12 25 -38 0 -28 -1 -29 -9 -8 -10 24 -22 27 -51 12 -21 -12 -26 -55
-7 -66 6 -4 17 1 25 11 12 17 13 15 13 -23 0 -28 -4 -41 -12 -39 -8 1 -14 -12
-16 -35 -2 -28 1 -38 12 -38 8 0 17 8 19 18 3 9 5 -9 6 -40 0 -33 -3 -58 -9
-58 -5 0 -10 -9 -10 -20 0 -14 6 -20 18 -18 13 2 18 -6 22 -41 4 -39 8 -44 33
-47 l28 -3 -2 75 c-2 61 1 77 15 87 15 11 18 30 17 138 -2 137 -9 199 -22 199
-5 0 -9 32 -9 70 0 56 3 70 15 70 10 0 15 11 16 38 3 86 6 118 12 132 6 15 17
192 17 282 0 26 4 49 10 53 7 4 10 -73 10 -234 0 -208 2 -241 15 -241 11 0 15
-12 15 -45 0 -33 4 -45 15 -45 13 0 15 24 15 160 0 100 4 160 10 160 6 0 10
17 10 39 0 32 4 40 23 45 35 9 37 8 37 -24 0 -16 -4 -30 -10 -30 -6 0 -10 -60
-10 -160 0 -118 3 -160 12 -160 9 0 9 -3 0 -12 -15 -15 -17 -224 -2 -233 6 -4
11 -21 11 -38 7 -504 11 -627 25 -638 8 -6 14 -18 14 -25 0 -8 7 -14 15 -14
17 0 17 -4 21 190 2 80 7 233 11 340 l8 195 5 -325 c4 -280 7 -325 20 -325 13
0 15 47 17 355 1 195 4 362 7 370 3 8 7 58 8 110 3 89 4 93 17 67 12 -22 12
-32 2 -50 -9 -16 -11 -60 -6 -152 3 -72 9 -233 13 -359 5 -169 10 -230 20
-234 9 -3 12 25 12 117 0 69 4 122 10 126 14 8 14 512 0 520 -12 7 -14 245 -2
245 17 0 38 513 32 785 -1 44 1 265 5 492 7 410 7 411 29 417 33 9 184 7 190
-3 3 -4 33 -9 66 -10 33 0 68 -5 78 -10 9 -5 25 -12 35 -15 10 -3 15 -11 12
-16 -4 -6 -3 -9 2 -8 47 12 93 -69 93 -165 0 -36 5 -69 10 -72 14 -9 13 -322
-2 -384 -8 -38 -8 -57 0 -73 6 -13 13 -98 15 -191 3 -92 9 -173 15 -180 5 -6
13 -33 16 -59 4 -27 11 -48 16 -48 5 0 11 -13 15 -30 4 -17 10 -30 15 -30 5 0
12 -9 15 -21 8 -23 74 -88 91 -89 7 0 14 -7 18 -15 3 -8 12 -15 21 -15 8 0 15
-4 15 -9 0 -5 11 -12 25 -15 14 -4 25 -12 25 -19 0 -7 16 -13 42 -14 23 -1 44
-6 46 -12 2 -6 16 -11 31 -11 15 0 33 -6 40 -12 9 -10 63 -13 201 -13 138 0
192 3 202 13 6 6 25 12 40 12 15 0 28 5 28 10 0 6 7 10 16 10 48 0 160 92 199
164 11 20 23 36 27 36 5 0 8 6 8 13 1 6 9 30 20 52 11 22 19 50 20 61 0 12 7
35 15 50 8 17 15 55 15 90 0 33 4 64 9 70 5 5 11 86 13 181 3 154 1 174 -15
190 -13 14 -21 15 -35 7 -20 -13 -29 -81 -13 -97 13 -13 15 -173 3 -181 -5 -3
-9 -26 -10 -53 -3 -72 -13 -147 -22 -158 -4 -5 -11 -31 -14 -57 -4 -27 -10
-48 -14 -48 -4 0 -13 -14 -19 -31 -8 -20 -16 -28 -24 -23 -7 4 -9 3 -5 -4 6
-10 -27 -76 -49 -97 -14 -14 -65 -19 -65 -6 0 6 -6 11 -13 11 -7 0 -20 17 -29
38 -14 31 -17 94 -20 389 -3 260 -7 356 -16 365 -7 7 -12 22 -12 34 0 13 -5
26 -10 29 -6 4 -8 10 -6 14 3 4 -11 41 -31 82 -26 54 -54 92 -106 141 -38 38
-74 68 -79 68 -5 0 -16 6 -23 13 -32 28 -43 35 -66 42 -13 4 -28 11 -34 15 -5
5 -27 11 -48 15 -20 4 -40 11 -43 16 -3 5 -11 9 -18 9 -8 0 -31 8 -52 17 -22
9 -49 15 -61 14 -11 -1 -24 2 -27 8 -4 5 -31 13 -61 16 -73 10 -73 30 1 39 30
3 60 4 65 0 5 -3 8 0 7 8 -2 8 14 16 47 21 28 5 64 16 80 25 17 8 37 19 45 23
8 5 38 18 65 30 28 12 58 28 67 36 9 8 22 12 29 7 7 -4 10 -3 5 4 -8 14 30 36
46 26 6 -4 8 -3 5 4 -7 11 47 62 65 62 6 0 9 2 6 5 -8 9 63 85 73 79 5 -3 6 1
3 9 -3 8 1 21 8 28 8 8 17 22 21 32 3 9 12 17 19 17 9 0 8 3 -2 10 -8 5 -10
10 -4 10 7 0 14 9 17 21 3 12 9 19 14 16 4 -3 9 15 10 40 1 25 7 51 13 58 13
16 15 151 2 168 -5 6 -12 31 -16 55 -3 24 -10 51 -15 60 -4 9 -16 34 -26 55
-10 20 -22 37 -27 37 -4 0 -8 6 -8 13 0 8 -9 22 -20 32 -11 10 -20 27 -20 38
0 11 -3 18 -6 15 -3 -4 -23 11 -45 33 -21 21 -43 39 -47 39 -5 0 -17 9 -27 20
-10 11 -24 20 -32 20 -7 0 -13 4 -13 9 0 4 -30 24 -67 42 -38 19 -69 37 -71
42 -2 4 -8 7 -14 7 -20 0 -78 32 -72 41 3 5 -2 6 -10 3 -8 -3 -25 1 -38 10
-16 11 -46 16 -104 16 -46 0 -84 4 -86 10 -1 5 -59 13 -128 16 -69 4 -127 11
-130 15 -6 9 -1658 17 -1725 9z m1470 -60 c3 -5 36 -10 72 -10 36 0 79 -6 96
-14 18 -8 44 -17 58 -20 35 -8 116 -85 124 -119 4 -15 11 -27 15 -27 4 0 11
-26 15 -57 4 -32 12 -61 19 -65 8 -5 11 -113 11 -390 0 -346 -2 -386 -17 -413
-10 -16 -18 -36 -18 -42 0 -7 -4 -13 -10 -13 -5 0 -10 -4 -10 -10 0 -27 -91
-90 -130 -90 -11 0 -20 -4 -20 -10 0 -6 -68 -10 -184 -10 l-184 0 -7 41 c-4
26 -3 45 4 52 14 14 14 64 1 72 -6 4 -10 60 -10 136 0 79 4 129 10 129 6 0 10
9 10 19 0 11 -4 23 -10 26 -13 8 -13 45 0 45 6 0 9 138 7 390 l-2 390 77 0
c42 0 80 -4 83 -10z"/>
<path d="M5023 5743 c-35 -2 -63 -8 -63 -12 0 -5 -25 -12 -55 -16 -30 -3 -55
-10 -55 -14 0 -5 -20 -11 -44 -14 -24 -4 -65 -18 -91 -32 -27 -14 -53 -25 -60
-25 -6 0 -32 -13 -58 -30 -26 -16 -58 -32 -71 -36 -13 -3 -32 -13 -43 -22 -10
-10 -35 -25 -55 -36 -20 -10 -39 -25 -42 -32 -3 -8 -12 -14 -20 -14 -32 0 -45
-57 -24 -107 6 -15 11 -31 10 -35 -1 -5 2 -8 8 -8 5 0 10 -8 10 -18 0 -10 5
-23 10 -28 10 -10 28 -114 36 -199 4 -48 -6 -136 -15 -131 -3 2 -7 -25 -7 -61
-1 -36 -6 -68 -11 -72 -10 -6 -25 -39 -27 -56 -2 -18 -60 -125 -68 -125 -4 0
-8 -6 -8 -13 0 -7 -34 -46 -75 -87 -47 -46 -75 -83 -75 -96 0 -12 16 -41 35
-66 19 -25 31 -49 27 -53 -4 -3 -2 -5 3 -3 6 2 37 -23 70 -56 70 -68 171 -146
191 -146 8 0 14 -4 14 -9 0 -5 12 -12 26 -15 14 -4 35 -16 47 -26 11 -11 35
-24 51 -29 46 -14 99 -33 117 -42 9 -4 33 -11 53 -14 20 -4 38 -11 41 -15 3
-5 23 -11 45 -15 22 -4 42 -11 45 -15 3 -5 27 -12 53 -15 26 -4 56 -10 67 -15
11 -5 48 -17 83 -27 34 -9 62 -21 62 -24 0 -4 8 -5 18 -2 10 2 31 -3 47 -11
17 -9 36 -16 43 -16 6 0 12 -4 12 -10 0 -5 12 -12 28 -16 95 -21 380 -184 365
-208 -4 -5 -2 -6 4 -3 10 7 103 -84 103 -101 0 -5 7 -15 15 -22 8 -7 12 -16 9
-21 -3 -5 2 -12 10 -15 18 -7 20 -26 6 -52 -5 -9 -12 -47 -15 -84 -4 -38 -10
-68 -15 -68 -4 0 -11 -20 -14 -44 -4 -24 -14 -50 -21 -56 -8 -7 -15 -18 -15
-24 -1 -6 -14 -22 -30 -36 -17 -13 -30 -30 -30 -37 0 -7 -3 -13 -8 -13 -4 0
-15 -17 -24 -37 -9 -21 -31 -54 -50 -74 -19 -20 -32 -41 -30 -47 1 -5 -8 -18
-21 -29 -13 -10 -27 -28 -31 -40 -4 -12 -13 -24 -21 -27 -8 -3 -15 -11 -15
-17 0 -13 -62 -83 -196 -221 -46 -47 -84 -91 -84 -97 0 -21 26 -11 60 24 18
19 38 31 43 28 6 -3 7 -1 3 5 -4 6 4 16 16 23 33 17 98 81 98 96 0 8 8 16 18
20 19 7 57 43 45 43 -4 0 19 25 50 56 31 31 57 59 57 63 0 4 23 28 50 55 28
27 50 54 50 60 0 6 9 18 20 26 10 8 22 27 25 42 4 15 10 28 15 28 9 0 24 48
21 68 -1 6 2 12 8 12 5 0 12 13 16 30 4 16 10 30 15 30 5 0 11 8 13 18 3 10 5
6 6 -10 0 -16 -3 -28 -8 -28 -4 0 -11 -19 -14 -41 -3 -23 -11 -45 -18 -50 -7
-4 -14 -18 -16 -30 -2 -13 -8 -26 -12 -29 -5 -3 -13 -18 -16 -33 -4 -15 -11
-27 -16 -27 -5 0 -9 -6 -9 -13 0 -8 -11 -24 -25 -37 -13 -12 -22 -26 -20 -31
3 -4 2 -9 -2 -11 -12 -5 -68 -81 -76 -101 -4 -11 -12 -15 -19 -11 -7 4 -10 4
-6 -1 11 -11 -12 -36 -25 -28 -6 3 -7 1 -3 -6 4 -6 0 -14 -8 -17 -9 -3 -16
-13 -16 -21 0 -9 -6 -13 -15 -9 -10 3 -15 -1 -15 -12 0 -23 -128 -155 -142
-146 -6 4 -8 3 -5 -2 3 -6 -8 -19 -24 -29 -35 -24 -38 -45 -6 -45 23 0 100 63
90 74 -4 4 8 12 25 18 18 7 32 16 32 21 0 4 5 5 10 2 6 -3 10 0 10 8 0 8 14
24 30 37 17 13 30 29 30 36 0 8 7 14 15 14 8 0 15 6 15 13 0 7 20 33 45 57 25
24 45 48 45 53 0 4 11 20 25 35 14 15 25 24 25 21 0 -14 -32 -69 -41 -69 -5 0
-9 -6 -9 -12 0 -12 -38 -62 -87 -115 -13 -13 -23 -27 -23 -31 0 -5 -16 -23
-35 -42 -19 -19 -35 -38 -35 -43 0 -12 -48 -57 -60 -57 -5 0 -26 -18 -46 -40
-21 -22 -41 -40 -45 -40 -17 0 -49 -35 -49 -52 0 -19 34 -25 45 -8 3 6 21 10
38 10 31 0 73 21 89 44 5 7 8 4 8 -6 0 -31 19 -29 57 7 20 19 41 35 45 35 4 0
8 5 8 11 0 6 7 17 15 26 17 17 14 40 -4 36 -20 -5 -12 8 28 47 21 21 43 45 48
54 4 8 36 44 71 79 34 36 62 71 62 79 0 16 31 48 47 48 5 0 15 10 21 23 21 40
54 86 83 116 22 22 47 76 55 117 3 19 10 34 15 34 5 0 9 6 9 13 0 7 9 29 20
50 11 20 20 48 20 61 0 14 5 28 10 31 6 3 10 32 11 63 0 50 16 121 18 83 1
-11 5 -10 16 5 13 17 14 15 9 -27 -5 -37 -3 -47 10 -52 18 -7 22 -52 5 -63 -6
-3 -9 -20 -7 -36 3 -16 1 -31 -4 -34 -4 -3 -8 -18 -8 -34 0 -16 -5 -32 -11
-36 -6 -3 -9 -19 -7 -35 3 -16 0 -30 -6 -32 -8 -3 -7 -12 2 -27 7 -12 12 -23
10 -23 -31 -15 -46 -31 -65 -67 -39 -74 -74 -132 -122 -204 -29 -43 -41 -71
-34 -73 7 -3 10 -10 7 -17 -6 -15 22 -30 37 -20 5 3 36 47 69 97 32 51 63 97
67 103 24 31 81 145 88 175 4 17 2 31 -7 40 -19 17 -11 64 8 48 17 -14 36 -3
33 19 -2 18 6 45 23 76 6 11 13 74 16 140 2 67 9 123 13 124 5 2 9 22 9 44 0
23 3 39 6 36 11 -12 7 -359 -5 -371 -14 -14 -14 -84 0 -89 7 -2 9 -13 5 -26
-4 -12 -11 -20 -15 -17 -5 2 -6 -7 -3 -20 3 -17 0 -25 -9 -25 -15 0 -40 -33
-50 -65 -3 -11 -11 -19 -17 -17 -7 1 -11 -1 -10 -5 4 -12 -30 -91 -42 -98 -5
-3 -10 -13 -10 -22 0 -9 -9 -26 -19 -37 -21 -23 -30 -73 -16 -95 6 -11 4 -13
-10 -8 -12 5 -28 -2 -51 -25 -19 -18 -34 -39 -34 -45 0 -7 -4 -13 -10 -13 -5
0 -10 -7 -10 -15 0 -8 7 -15 15 -15 20 0 8 -30 -21 -53 -13 -10 -25 -25 -28
-35 -3 -9 -22 -28 -41 -41 -19 -13 -66 -54 -105 -92 -38 -38 -74 -69 -78 -69
-5 0 -25 -18 -45 -39 -20 -22 -50 -48 -67 -57 -16 -10 -30 -24 -30 -31 0 -17
37 -17 43 0 4 9 6 9 6 -1 1 -7 -10 -17 -24 -22 -15 -6 -25 -17 -25 -29 0 -50
52 -31 124 44 29 30 61 55 70 55 22 0 216 194 216 215 0 8 -9 15 -20 15 -26 0
-25 8 5 32 14 11 25 25 25 32 0 7 10 21 22 32 23 20 23 21 1 -33 -6 -17 -5
-16 22 1 17 10 42 32 57 47 31 34 52 38 43 9 -4 -14 -2 -20 9 -20 20 0 94 89
102 122 3 16 9 28 14 28 4 0 10 9 13 20 3 11 12 20 21 20 10 0 16 9 16 25 0
14 6 25 13 25 22 0 50 75 43 114 -6 32 -4 37 18 45 16 7 27 21 31 41 5 21 15
34 32 41 15 5 23 15 20 23 -3 7 -1 19 4 27 6 10 9 7 9 -13 0 -30 6 -33 43 -19
24 9 24 8 24 -45 0 -33 -5 -58 -14 -65 -7 -6 -16 -28 -19 -48 -4 -25 -13 -40
-27 -47 -12 -5 -23 -20 -25 -34 -2 -14 -11 -31 -20 -38 -12 -9 -13 -15 -4 -24
9 -9 15 -8 27 8 14 19 14 18 15 -3 0 -13 -4 -23 -10 -23 -5 0 -10 -5 -10 -11
0 -21 -32 -79 -41 -73 -5 3 -9 0 -9 -6 0 -7 7 -10 15 -7 8 4 17 2 20 -3 10
-16 33 -11 38 7 4 17 5 17 6 1 0 -10 6 -18 12 -18 8 0 8 -5 -1 -15 -7 -8 -19
-15 -26 -15 -16 0 -19 -26 -5 -32 19 -7 23 -55 6 -72 -23 -22 -33 -96 -14 -96
17 0 85 100 105 152 3 10 10 18 14 18 4 0 11 12 15 27 3 15 10 30 14 33 12 9
59 107 66 139 4 17 10 31 15 31 5 0 12 20 16 45 3 25 10 45 15 45 5 0 9 11 9
24 0 13 6 29 14 35 9 8 15 39 18 88 2 48 8 78 16 81 14 4 16 52 2 52 -5 0 -10
16 -10 35 0 19 5 35 10 35 12 0 14 167 1 174 -5 3 -12 49 -16 103 -4 53 -11
104 -16 112 -4 9 -11 46 -14 84 -4 37 -10 67 -15 67 -4 0 -11 26 -15 58 -4 31
-11 60 -17 63 -5 3 -12 25 -15 48 -3 22 -10 41 -15 41 -6 0 -8 7 -4 15 3 8 2
15 -2 15 -9 0 -32 49 -32 67 0 7 -4 13 -9 13 -5 0 -12 14 -16 30 -4 17 -10 30
-15 30 -4 0 -13 12 -19 28 -19 50 -60 115 -93 149 -17 18 -28 33 -24 33 4 0
-33 40 -83 89 -50 48 -91 94 -91 100 0 7 -5 9 -10 6 -12 -7 -72 40 -63 49 4 3
-1 6 -11 6 -14 0 -61 24 -76 40 -28 29 -282 144 -344 156 -20 3 -39 10 -42 15
-3 5 -16 9 -30 9 -13 0 -24 3 -24 8 0 4 -12 8 -27 9 -51 3 -158 23 -176 33 -9
6 -44 13 -77 17 -33 3 -60 10 -60 14 0 5 -10 9 -22 9 -26 0 -143 36 -180 56
-14 8 -33 14 -42 14 -9 0 -16 4 -16 9 0 5 -8 12 -17 15 -80 29 -223 194 -223
258 0 8 -5 19 -11 25 -8 8 -12 56 -13 130 -1 119 15 191 51 234 7 8 13 19 13
23 0 14 97 104 121 111 13 4 26 11 29 15 12 16 133 40 203 40 126 0 300 -49
402 -112 96 -61 251 -220 299 -308 11 -19 22 -37 25 -40 12 -10 47 -66 64
-100 10 -19 21 -42 26 -50 27 -49 39 -79 45 -110 4 -19 11 -44 16 -55 13 -32
30 -126 32 -178 1 -26 7 -55 13 -64 12 -16 14 -16 29 -1 14 15 16 71 16 548
l0 531 -32 -3 c-18 -2 -33 -7 -34 -13 -6 -79 -71 -142 -135 -133 -16 3 -29 1
-29 -4 0 -4 -25 -8 -55 -8 -30 0 -55 4 -55 8 0 4 -16 6 -35 4 -19 -2 -41 0
-48 6 -6 5 -29 13 -51 16 -21 4 -46 11 -55 16 -36 20 -111 50 -125 50 -8 0
-17 4 -20 9 -3 5 -32 12 -63 16 -32 4 -60 11 -63 16 -7 10 -254 19 -347 12z"/>
<path d="M3910 5661 c0 -6 4 -13 10 -16 6 -3 7 1 4 9 -7 18 -14 21 -14 7z"/>
<path d="M3967 5639 c7 -7 15 -10 18 -7 3 3 -2 9 -12 12 -14 6 -15 5 -6 -5z"/>
<path d="M1353 5313 c-7 -3 -13 -11 -13 -19 0 -8 -4 -22 -9 -32 -15 -26 -66
-188 -85 -267 -10 -38 -24 -95 -31 -125 -8 -31 -17 -77 -20 -103 -2 -27 -8
-53 -11 -59 -4 -6 -8 -25 -10 -42 -1 -17 -5 -56 -8 -86 -14 -151 -18 -461 -7
-555 29 -245 30 -257 61 -405 24 -113 40 -170 74 -269 14 -41 23 -78 21 -82
-3 -3 1 -12 9 -18 8 -7 17 -24 21 -39 10 -44 26 -78 115 -257 80 -159 165
-301 232 -387 17 -21 26 -38 22 -38 -5 0 2 -7 14 -16 13 -9 21 -22 18 -30 -3
-8 -2 -13 3 -11 4 1 20 -13 36 -31 l28 -33 33 32 c41 39 41 46 9 79 -55 56
-86 100 -79 111 4 7 3 9 -3 6 -6 -4 -30 23 -54 61 -24 37 -46 69 -49 72 -3 3
-11 16 -18 30 -14 29 -35 63 -43 70 -5 5 -124 246 -140 285 -4 11 -17 41 -28
67 -12 26 -21 52 -21 58 0 5 -4 18 -9 28 -19 37 -59 171 -81 272 -68 321 -75
381 -75 690 0 198 4 296 14 350 8 41 14 79 12 84 -4 15 22 116 30 116 4 0 5 9
2 20 -6 24 5 73 15 66 4 -2 7 12 8 32 0 44 25 133 35 126 4 -2 5 5 2 16 -3 11
-1 26 5 33 5 6 13 28 17 47 4 19 11 41 16 50 16 31 29 84 22 91 -11 9 -65 18
-80 12z"/>
<path d="M3795 4360 c-3 -5 -1 -10 4 -10 6 0 11 5 11 10 0 6 -2 10 -4 10 -3 0
-8 -4 -11 -10z"/>
<path d="M6307 2445 c-48 -54 -86 -108 -82 -115 3 -5 1 -11 -5 -15 -15 -9 -12
-25 5 -25 8 0 15 3 15 8 0 4 10 13 23 21 21 14 21 13 7 -5 -8 -10 -24 -26 -35
-34 -11 -8 -39 -33 -62 -56 -24 -23 -49 -44 -55 -47 -7 -2 -10 -8 -6 -12 5 -5
16 -1 25 7 16 14 56 31 75 33 6 0 151 140 176 170 7 8 9 15 3 15 -5 0 -14 14
-20 31 -9 26 -13 29 -25 20 -11 -10 -15 -8 -18 6 -3 17 -4 16 -21 -2z"/>
<path d="M6250 2137 c-92 -83 -133 -117 -144 -117 -6 0 -22 -12 -35 -25 -13
-14 -29 -25 -37 -25 -8 0 -14 -9 -14 -20 0 -45 46 -19 230 132 36 30 66 62 68
71 6 28 -29 20 -68 -16z"/>
<path d="M2182 2063 c4 -39 28 -42 28 -4 0 21 -5 31 -16 31 -11 0 -14 -8 -12
-27z"/>
<path d="M5450 1931 c0 -6 -11 -13 -25 -17 -27 -7 -35 -34 -10 -34 8 0 15 3
15 8 0 4 10 12 23 17 12 6 21 14 20 20 -2 13 -23 19 -23 6z"/>
<path d="M5445 1665 c-46 -45 -27 -69 32 -42 46 20 64 39 51 54 -17 21 -57 15
-83 -12z"/>
<path d="M2350 1631 c0 -28 5 -53 10 -56 6 -4 10 -21 8 -39 -1 -17 2 -38 7
-46 4 -7 9 -54 9 -104 1 -136 20 -118 28 26 4 68 10 150 13 183 6 58 5 60 -21
73 -47 21 -54 16 -54 -37z"/>
<path d="M5134 1665 c-17 -8 -34 -22 -38 -31 -4 -10 -13 -14 -25 -11 -11 2
-23 -3 -30 -14 -6 -11 -16 -19 -21 -19 -6 0 -19 -9 -31 -21 -12 -12 -27 -18
-36 -15 -9 4 -25 -4 -40 -20 -19 -21 -27 -23 -38 -14 -11 10 -24 7 -60 -10
-47 -23 -56 -37 -30 -46 15 -6 22 -26 8 -22 -5 1 -19 -4 -31 -11 -22 -12 -23
-11 -18 7 4 12 -2 30 -16 48 -12 16 -22 30 -23 31 0 1 -39 -5 -85 -13 -330
-60 -687 -66 -1000 -19 -29 4 -151 29 -225 44 -27 6 -61 15 -75 20 -113 41
-202 63 -212 53 -13 -13 -13 -71 -1 -82 11 -11 202 -70 225 -70 10 0 26 -4 36
-10 19 -10 99 -26 207 -41 39 -5 90 -14 115 -21 57 -14 577 -20 685 -8 44 5
123 17 175 25 182 30 169 29 163 7 -5 -21 15 -41 26 -25 10 14 144 77 167 78
26 1 125 66 156 103 13 16 43 37 65 47 24 11 44 27 47 39 11 41 9 42 -40 21z"/>
<path d="M2400 1150 c0 -77 3 -101 13 -97 8 3 12 31 12 97 0 66 -4 95 -12 98
-10 3 -13 -21 -13 -98z"/>
<path d="M2417 1023 c-9 -8 -9 -166 -1 -187 3 -9 12 -16 20 -16 8 0 14 -4 14
-10 0 -5 5 -10 10 -10 6 0 10 16 10 36 0 28 -3 35 -15 30 -13 -4 -15 8 -15 79
0 78 -5 96 -23 78z"/>
<path d="M2435 781 c-3 -5 -1 -12 5 -16 5 -3 10 1 10 9 0 18 -6 21 -15 7z"/>
</g>
</svg>
